<svg xmlns="http://www.w3.org/2000/svg" xmlns:xlink="http://www.w3.org/1999/xlink" width="500" zoomAndPan="magnify" viewBox="0 0 375 374.999991" height="500" preserveAspectRatio="xMidYMid meet" version="1.0"><defs><clipPath id="0b8856e92a"><path d="M 140.835938 22.941406 L 234.675781 22.941406 L 234.675781 104.933594 L 140.835938 104.933594 Z M 140.835938 22.941406 " clip-rule="nonzero"/></clipPath><clipPath id="eac86e69a5"><path d="M 187.6875 22.941406 L 234.539062 104.933594 L 140.835938 104.933594 Z M 187.6875 22.941406 " clip-rule="nonzero"/></clipPath><clipPath id="07eb5f76d6"><path d="M 93.984375 105.34375 L 187.824219 105.34375 L 187.824219 187.335938 L 93.984375 187.335938 Z M 93.984375 105.34375 " clip-rule="nonzero"/></clipPath><clipPath id="75b455eb5f"><path d="M 140.835938 105.34375 L 187.6875 187.335938 L 93.984375 187.335938 Z M 140.835938 105.34375 " clip-rule="nonzero"/></clipPath><clipPath id="efc84f49e6"><path d="M 187.3125 104.933594 L 281.152344 104.933594 L 281.152344 186.921875 L 187.3125 186.921875 Z M 187.3125 104.933594 " clip-rule="nonzero"/></clipPath><clipPath id="1bfed7c4eb"><path d="M 234.164062 104.933594 L 281.015625 186.921875 L 187.3125 186.921875 Z M 234.164062 104.933594 " clip-rule="nonzero"/></clipPath><clipPath id="93e55c694a"><path d="M 234.824219 187.335938 L 328.664062 187.335938 L 328.664062 269.324219 L 234.824219 269.324219 Z M 234.824219 187.335938 " clip-rule="nonzero"/></clipPath><clipPath id="e57f8fa717"><path d="M 281.675781 187.335938 L 328.527344 269.324219 L 234.824219 269.324219 Z M 281.675781 187.335938 " clip-rule="nonzero"/></clipPath><clipPath id="461370e7ee"><path d="M 187.972656 269.738281 L 281.8125 269.738281 L 281.8125 351.726562 L 187.972656 351.726562 Z M 187.972656 269.738281 " clip-rule="nonzero"/></clipPath><clipPath id="d6f6db0e04"><path d="M 234.824219 269.738281 L 281.675781 351.726562 L 187.972656 351.726562 Z M 234.824219 269.738281 " clip-rule="nonzero"/></clipPath><clipPath id="b5cda7e6c8"><path d="M 281.296875 269.324219 L 375 269.324219 L 375 351.316406 L 281.296875 351.316406 Z M 281.296875 269.324219 " clip-rule="nonzero"/></clipPath><clipPath id="9ea0c6864f"><path d="M 328.148438 269.324219 L 375 351.316406 L 281.296875 351.316406 Z M 328.148438 269.324219 " clip-rule="nonzero"/></clipPath><clipPath id="047977db87"><path d="M 46.851562 187.664062 L 140.691406 187.664062 L 140.691406 269.65625 L 46.851562 269.65625 Z M 46.851562 187.664062 " clip-rule="nonzero"/></clipPath><clipPath id="6e10d13b3e"><path d="M 93.703125 187.664062 L 140.554688 269.65625 L 46.851562 269.65625 Z M 93.703125 187.664062 " clip-rule="nonzero"/></clipPath><clipPath id="4a42307e39"><path d="M 0 270.066406 L 93.839844 270.066406 L 93.839844 352.058594 L 0 352.058594 Z M 0 270.066406 " clip-rule="nonzero"/></clipPath><clipPath id="859c3ebf97"><path d="M 46.851562 270.066406 L 93.703125 352.058594 L 0 352.058594 Z M 46.851562 270.066406 " clip-rule="nonzero"/></clipPath><clipPath id="e410db6f96"><path d="M 93.324219 269.65625 L 187.167969 269.65625 L 187.167969 351.644531 L 93.324219 351.644531 Z M 93.324219 269.65625 " clip-rule="nonzero"/></clipPath><clipPath id="3fd91f5deb"><path d="M 140.175781 269.65625 L 187.027344 351.644531 L 93.324219 351.644531 Z M 140.175781 269.65625 " clip-rule="nonzero"/></clipPath></defs><g clip-path="url(#0b8856e92a)"><g clip-path="url(#eac86e69a5)"><path fill="#c462ff" d="M 140.835938 22.941406 L 234.675781 22.941406 L 234.675781 104.933594 L 140.835938 104.933594 Z M 140.835938 22.941406 " fill-opacity="1" fill-rule="nonzero"/></g></g><g clip-path="url(#07eb5f76d6)"><g clip-path="url(#75b455eb5f)"><path fill="#c462ff" d="M 93.984375 105.34375 L 187.824219 105.34375 L 187.824219 187.335938 L 93.984375 187.335938 Z M 93.984375 105.34375 " fill-opacity="1" fill-rule="nonzero"/></g></g><g clip-path="url(#efc84f49e6)"><g clip-path="url(#1bfed7c4eb)"><path fill="#c462ff" d="M 187.3125 104.933594 L 281.152344 104.933594 L 281.152344 186.921875 L 187.3125 186.921875 Z M 187.3125 104.933594 " fill-opacity="1" fill-rule="nonzero"/></g></g><g clip-path="url(#93e55c694a)"><g clip-path="url(#e57f8fa717)"><path fill="#c462ff" d="M 234.824219 187.335938 L 328.664062 187.335938 L 328.664062 269.324219 L 234.824219 269.324219 Z M 234.824219 187.335938 " fill-opacity="1" fill-rule="nonzero"/></g></g><g clip-path="url(#461370e7ee)"><g clip-path="url(#d6f6db0e04)"><path fill="#c462ff" d="M 187.972656 269.738281 L 281.8125 269.738281 L 281.8125 351.726562 L 187.972656 351.726562 Z M 187.972656 269.738281 " fill-opacity="1" fill-rule="nonzero"/></g></g><g clip-path="url(#b5cda7e6c8)"><g clip-path="url(#9ea0c6864f)"><path fill="#c462ff" d="M 281.296875 269.324219 L 375.136719 269.324219 L 375.136719 351.316406 L 281.296875 351.316406 Z M 281.296875 269.324219 " fill-opacity="1" fill-rule="nonzero"/></g></g><g clip-path="url(#047977db87)"><g clip-path="url(#6e10d13b3e)"><path fill="#c462ff" d="M 46.851562 187.664062 L 140.691406 187.664062 L 140.691406 269.65625 L 46.851562 269.65625 Z M 46.851562 187.664062 " fill-opacity="1" fill-rule="nonzero"/></g></g><g clip-path="url(#4a42307e39)"><g clip-path="url(#859c3ebf97)"><path fill="#c462ff" d="M 0 270.066406 L 93.839844 270.066406 L 93.839844 352.058594 L 0 352.058594 Z M 0 270.066406 " fill-opacity="1" fill-rule="nonzero"/></g></g><g clip-path="url(#e410db6f96)"><g clip-path="url(#3fd91f5deb)"><path fill="#c462ff" d="M 93.324219 269.65625 L 187.167969 269.65625 L 187.167969 351.644531 L 93.324219 351.644531 Z M 93.324219 269.65625 " fill-opacity="1" fill-rule="nonzero"/></g></g></svg>